<?xml version="1.0" encoding="UTF-8" standalone="no"?>
<!-- Created with Inkscape (http://www.inkscape.org/) -->

<svg
   width="556.58844mm"
   height="94.875488mm"
   viewBox="0 0 556.58844 94.875488"
   version="1.1"
   id="svg1"
   xml:space="preserve"
   sodipodi:docname="path4.svg"
   xmlns:inkscape="http://www.inkscape.org/namespaces/inkscape"
   xmlns:sodipodi="http://sodipodi.sourceforge.net/DTD/sodipodi-0.dtd"
   xmlns="http://www.w3.org/2000/svg"
   xmlns:svg="http://www.w3.org/2000/svg"><sodipodi:namedview
     id="namedview1"
     pagecolor="#ffffff"
     bordercolor="#000000"
     borderopacity="0.25"
     inkscape:showpageshadow="2"
     inkscape:pageopacity="0.0"
     inkscape:pagecheckerboard="0"
     inkscape:deskcolor="#d1d1d1"
     inkscape:document-units="mm"
     showgrid="false" /><defs
     id="defs1" /><g
     inkscape:label="Layer 1"
     inkscape:groupmode="layer"
     id="layer1"
     transform="translate(-75.110813,-65.08056)"><rect
       style="fill:none;fill-opacity:1;stroke:#404040;stroke-width:5.90199;stroke-dasharray:none;stroke-opacity:1;paint-order:fill markers stroke"
       id="rect5-7"
       width="32.692822"
       height="0.42735714"
       x="139.65431"
       y="-29.595579"
       transform="rotate(49.623815)" /><rect
       style="fill:none;stroke:#404040;stroke-width:5.90199;stroke-dasharray:none;stroke-opacity:1;paint-order:fill markers stroke"
       id="rect5"
       width="32.692822"
       height="0.42735714"
       x="47.608906"
       y="166.9409"
       transform="rotate(-20.638357)" /><circle
       style="fill:none;stroke:#000000;stroke-width:4.8809;stroke-dasharray:none;stroke-opacity:1;paint-order:fill markers stroke"
       id="path3"
       cx="89.920975"
       cy="145.14589"
       r="12.369712" /><circle
       style="fill:#000000;fill-opacity:1;stroke-width:0.79469"
       id="path5"
       cx="106.50243"
       cy="79.845749"
       r="14.765189" /><circle
       style="fill:#be3412;fill-opacity:1;stroke-width:0.938422"
       id="path4"
       cx="145.22098"
       cy="124.88916"
       r="19.252439"
       inkscape:export-filename="path4.svg"
       inkscape:export-xdpi="133.86"
       inkscape:export-ydpi="133.86" /><path
       style="font-size:104.129px;font-family:Outfit;-inkscape-font-specification:Outfit;stroke-width:20.7146;paint-order:fill markers stroke"
       d="m 227.15768,159.7977 q -7.70554,0 -14.3698,-2.81148 -6.66426,-2.91562 -11.66245,-8.01794 -4.99819,-5.20645 -7.80967,-11.97483 -2.70736,-6.76839 -2.70736,-14.47393 0,-7.80968 2.70736,-14.47393 2.81148,-6.76839 7.70554,-11.870709 4.99819,-5.102321 11.55832,-7.913804 6.66426,-2.811483 14.3698,-2.811483 7.70555,0 14.26568,2.811483 6.66425,2.811483 11.66244,7.913804 4.9982,5.102319 7.80968,11.870709 2.81148,6.76838 2.81148,14.57806 0,7.70554 -2.81148,14.47393 -2.81148,6.76838 -7.80968,11.8707 -4.89406,5.10232 -11.55831,8.01794 -6.56013,2.81148 -14.16155,2.81148 z m -0.20826,-9.37161 q 7.80968,0 13.6409,-3.54039 5.93535,-3.64451 9.37161,-9.89225 3.43626,-6.35187 3.43626,-14.47393 0,-6.03948 -1.97845,-11.03768 -1.97845,-5.10232 -5.51884,-8.85096 -3.54038,-3.748645 -8.33032,-5.727096 -4.78993,-2.08258 -10.62116,-2.08258 -7.70554,0 -13.6409,3.540386 -5.83122,3.54039 -9.26748,9.78813 -3.33212,6.24774 -3.33212,14.3698 0,6.03948 1.87432,11.24593 1.97845,5.10232 5.41471,8.85096 3.54038,3.64452 8.33032,5.7271 4.89406,2.08258 10.62115,2.08258 z m 68.04829,9.37161 q -8.53858,0 -14.57806,-3.12387 -6.03948,-3.12387 -10.72529,-9.05922 l 6.66426,-6.66426 q 3.43626,4.78993 7.9138,7.28903 4.47755,2.39497 11.03768,2.39497 6.456,0 10.30877,-2.81149 3.9569,-2.81148 3.9569,-7.70554 0,-4.06103 -1.87432,-6.56013 -1.87432,-2.49909 -5.10232,-4.06103 -3.12387,-1.66606 -6.87252,-2.91561 -3.74864,-1.35368 -7.49728,-2.81148 -3.74865,-1.56194 -6.87252,-3.74865 -3.12387,-2.29084 -5.10232,-5.93535 -1.87432,-3.64452 -1.87432,-9.16335 0,-6.143614 2.91561,-10.412903 3.01974,-4.373418 8.12206,-6.664256 5.20645,-2.394967 11.66245,-2.394967 7.08077,0 12.70374,2.811483 5.62296,2.707354 9.16335,7.184901 l -6.66426,6.664252 q -3.22799,-3.74864 -6.97664,-5.622962 -3.64451,-1.874322 -8.43445,-1.874322 -5.83122,0 -9.26748,2.603225 -3.43626,2.499096 -3.43626,7.080769 0,3.64452 1.87433,5.93536 1.97845,2.1867 5.10232,3.74864 3.12387,1.56193 6.87251,2.91561 3.85277,1.24955 7.60142,2.81148 3.74864,1.56194 6.87251,3.95691 3.12387,2.39496 4.99819,6.24774 1.97845,3.74864 1.97845,9.47574 0,9.57986 -6.66425,14.99457 -6.56013,5.41471 -17.80606,5.41471 z m 70.75573,0 q -7.80967,0 -14.47393,-2.81148 -6.66425,-2.91562 -11.66245,-8.01794 -4.89406,-5.10232 -7.60141,-11.8707 -2.70736,-6.76839 -2.70736,-14.47393 0,-7.80968 2.70736,-14.57806 2.70735,-6.76839 7.60141,-11.76658 4.9982,-5.102321 11.55832,-7.913804 6.66426,-2.915612 14.47393,-2.915612 8.53858,0 14.99458,2.915612 6.456,2.915612 11.45419,7.913804 l -6.76839,6.76838 q -3.43625,-3.852768 -8.43444,-6.039477 -4.89407,-2.186709 -11.24594,-2.186709 -5.72709,0 -10.51703,2.08258 -4.78993,1.978451 -8.33032,5.727096 -3.54038,3.74864 -5.51883,8.85096 -1.87432,5.10232 -1.87432,11.14181 0,6.03948 1.87432,11.1418 1.97845,5.10232 5.51883,8.85096 3.54039,3.74865 8.33032,5.83123 4.78994,1.97845 10.51703,1.97845 6.76839,0 11.76658,-2.18671 4.99819,-2.29084 8.43445,-6.14361 l 6.76838,6.66425 q -4.99819,5.20645 -11.76657,8.12207 -6.66426,2.91561 -15.09871,2.91561 z m 45.40023,-29.15612 V 122.103 h 19.68038 q 4.06103,0 7.1849,-1.66606 3.228,-1.66607 4.99819,-4.68581 1.87432,-3.01974 1.87432,-7.1849 0,-4.16516 -1.87432,-7.1849 -1.77019,-3.01974 -4.99819,-4.685804 -3.12387,-1.666064 -7.1849,-1.666064 h -19.68038 v -8.538578 h 20.30515 q 6.66426,0 11.87071,2.707354 5.31058,2.707354 8.33032,7.705546 3.12387,4.894066 3.12387,11.662446 0,6.66426 -3.12387,11.66245 -3.01974,4.89406 -8.33032,7.70555 -5.20645,2.70735 -11.87071,2.70735 z m -6.56013,28.11483 V 86.490884 h 9.78813 v 72.265526 z m 81.22087,1.04129 q -7.28903,0 -13.12026,-3.43626 -5.83122,-3.43626 -9.26748,-9.26748 -3.43625,-5.93535 -3.43625,-13.22438 0,-7.1849 3.43625,-12.912 3.43626,-5.83122 9.26748,-9.26748 5.83123,-3.43626 13.12026,-3.43626 7.1849,0 13.01612,3.43626 5.93536,3.33213 9.37161,9.16335 3.43626,5.83123 3.43626,13.01613 0,7.28903 -3.43626,13.22438 -3.43625,5.83122 -9.37161,9.26748 -5.83122,3.43626 -13.01612,3.43626 z m 0,-9.05922 q 4.6858,0 8.33032,-2.18671 3.64451,-2.18671 5.72709,-5.93536 2.08258,-3.85277 2.08258,-8.74683 0,-4.78994 -2.18671,-8.53858 -2.08258,-3.74864 -5.72709,-5.83122 -3.54039,-2.18671 -8.22619,-2.18671 -4.68581,0 -8.33032,2.18671 -3.64452,2.08258 -5.7271,5.83122 -2.08258,3.74864 -2.08258,8.53858 0,4.89406 2.08258,8.74683 2.08258,3.74865 5.7271,5.93536 3.64451,2.18671 8.33032,2.18671 z m 36.44515,8.01793 v -49.46128 h 9.37161 v 49.46128 z m 4.6858,-59.35353 q -2.60322,0 -4.26929,-1.666064 -1.66606,-1.770193 -1.66606,-4.373418 0,-2.499096 1.66606,-4.16516 1.66607,-1.770193 4.26929,-1.770193 2.60323,0 4.26929,1.770193 1.66606,1.666064 1.66606,4.16516 0,2.603225 -1.66606,4.373418 -1.66606,1.666064 -4.26929,1.666064 z m 53.52239,59.35353 v -28.84373 q 0,-5.62297 -3.54038,-9.26748 -3.54039,-3.64452 -9.16336,-3.64452 -3.74864,0 -6.66425,1.66606 -2.91561,1.66607 -4.58168,4.58168 -1.66606,2.91561 -1.66606,6.66426 l -3.85277,-2.18671 q 0,-5.62297 2.49909,-9.99639 2.4991,-4.37341 6.97664,-6.87251 4.47755,-2.60323 10.10052,-2.60323 5.62296,0 9.89225,2.81149 4.37342,2.81148 6.87252,7.39316 2.49909,4.47754 2.49909,9.57986 v 30.71806 z m -34.98734,0 v -49.46128 h 9.37161 v 49.46128 z"
       id="path6" /><path
       style="font-size:104.129px;font-family:Outfit;-inkscape-font-specification:Outfit;stroke-width:20.7146;paint-order:fill markers stroke"
       d="M 610.14457,158.75641 V 88.573464 h 9.37161 v 70.182946 z m -12.18309,-40.9227 v -8.53858 h 33.73779 v 8.53858 z"
       id="path7"
       inkscape:export-filename="tempo.svg"
       inkscape:export-xdpi="133.86"
       inkscape:export-ydpi="133.86" /></g></svg>
